<svg id="Ebene_1" data-name="Ebene 1" xmlns="http://www.w3.org/2000/svg" viewBox="0 0 289.51 213.04"><defs><style>.cls-1{fill:#fab291;}.cls-2{fill:#788aa1;}.cls-3{fill:#f5a17d;}.cls-4{fill:#576e87;}.cls-5{fill:#d9d9de;}.cls-6{fill:#1a1a1a;}.cls-7{fill:#99c7d9;}.cls-8{fill:#8ac6c6;}</style></defs><title>numa_energy</title><polygon class="cls-1" points="111.62 82.05 111.62 125.56 146.57 142.91 146.57 99.41 111.62 82.05"/><polygon class="cls-2" points="124.8 97.25 124.8 103.18 129.57 105.55 129.57 99.62 124.8 97.25"/><polygon class="cls-3" points="146.57 99.41 146.57 142.92 205.32 114.2 205.32 71.12 146.57 99.41"/><polygon class="cls-4" points="172.63 99.35 172.63 120.96 201.81 106.69 201.81 85.3 172.63 99.35"/><polygon class="cls-4" points="167.73 101.43 157.81 106.2 157.81 137.47 167.73 132.62 167.73 101.43"/><polygon class="cls-5" points="111.62 82.05 146.57 99.41 205.32 71.12 171 55.04 111.62 82.05"/><polygon class="cls-4" points="171.15 60.04 197.89 72.53 200.59 71.23 170.93 57.37 116.92 81.91 119.83 83.35 171.15 60.04"/><polygon class="cls-4" points="173.26 81.87 174.34 81.36 174.34 71.95 173.26 71.76 173.26 81.87"/><polygon class="cls-6" points="171.7 69.89 171.7 80.96 173.26 81.87 173.26 69.89 171.7 69.89"/><polygon class="cls-4" points="160.59 76 161.66 75.49 161.66 66.08 160.59 65.89 160.59 76"/><polygon class="cls-6" points="163.34 48.18 153.3 60.26 181.43 74.12 191.48 62.04 163.34 48.18"/><polygon class="cls-7" points="162.7 57.02 159.28 55.33 155.35 60.05 158.77 61.74 162.7 57.02"/><polygon class="cls-7" points="167.11 59.19 163.69 57.5 159.76 62.23 163.18 63.91 167.11 59.19"/><polygon class="cls-7" points="171.52 61.36 168.1 59.67 164.17 64.4 167.59 66.08 171.52 61.36"/><polygon class="cls-7" points="175.92 63.53 172.51 61.85 168.58 66.57 172 68.25 175.92 63.53"/><polygon class="cls-7" points="180.33 65.7 176.92 64.02 172.99 68.74 176.4 70.42 180.33 65.7"/><polygon class="cls-7" points="184.74 67.87 181.32 66.19 177.39 70.91 180.81 72.59 184.74 67.87"/><polygon class="cls-7" points="167.38 51.38 163.97 49.7 160.04 54.42 163.46 56.11 167.38 51.38"/><polygon class="cls-7" points="171.79 53.56 168.38 51.87 164.45 56.59 167.86 58.28 171.79 53.56"/><polygon class="cls-7" points="176.2 55.73 172.78 54.05 168.85 58.77 172.27 60.45 176.2 55.73"/><polygon class="cls-7" points="180.61 57.9 177.19 56.22 173.26 60.94 176.68 62.62 180.61 57.9"/><polygon class="cls-7" points="185.02 60.07 181.6 58.39 177.67 63.11 181.09 64.79 185.02 60.07"/><polygon class="cls-7" points="189.43 62.24 186.01 60.56 182.08 65.28 185.5 66.96 189.43 62.24"/><polygon class="cls-6" points="181.14 76 153 62.16 153.29 60.26 181.43 74.1 181.14 76"/><polygon class="cls-6" points="181.14 76 191.2 63.93 191.49 62.03 181.43 74.1 181.14 76"/><polygon class="cls-6" points="159.03 64.02 159.03 75.08 160.59 76 160.59 64.02 159.03 64.02"/><polygon class="cls-4" points="145.39 94.03 146.46 93.52 146.46 84.11 145.39 83.92 145.39 94.03"/><polygon class="cls-6" points="143.82 82.05 143.82 93.12 145.38 94.03 145.38 82.05 143.82 82.05"/><polygon class="cls-4" points="132.71 88.16 133.78 87.65 133.78 78.24 132.71 78.05 132.71 88.16"/><polygon class="cls-6" points="153.56 86.28 125.42 72.42 135.47 60.34 163.61 74.2 153.56 86.28"/><polygon class="cls-7" points="134.82 69.17 131.41 67.49 127.47 72.21 130.89 73.9 134.82 69.17"/><polygon class="cls-7" points="139.23 71.35 135.81 69.66 131.88 74.39 135.3 76.07 139.23 71.35"/><polygon class="cls-7" points="143.64 73.52 140.22 71.83 136.29 76.56 139.71 78.24 143.64 73.52"/><polygon class="cls-7" points="148.05 75.69 144.63 74.01 140.7 78.73 144.12 80.41 148.05 75.69"/><polygon class="cls-7" points="152.45 77.86 149.04 76.18 145.11 80.9 148.53 82.58 152.45 77.86"/><polygon class="cls-7" points="156.86 80.03 153.44 78.35 149.52 83.07 152.93 84.75 156.86 80.03"/><polygon class="cls-7" points="139.51 63.55 136.09 61.86 132.16 66.58 135.58 68.27 139.51 63.55"/><polygon class="cls-7" points="143.91 65.72 140.5 64.03 136.57 68.75 139.98 70.44 143.91 65.72"/><polygon class="cls-7" points="148.32 67.89 144.91 66.2 140.98 70.93 144.39 72.61 148.32 67.89"/><polygon class="cls-7" points="152.73 70.06 149.31 68.38 145.38 73.1 148.8 74.78 152.73 70.06"/><polygon class="cls-7" points="157.14 72.23 153.72 70.55 149.79 75.27 153.21 76.95 157.14 72.23"/><polygon class="cls-7" points="161.55 74.4 158.13 72.72 154.2 77.44 157.62 79.12 161.55 74.4"/><polygon class="cls-6" points="153.26 88.16 125.13 74.31 125.42 72.42 153.55 86.26 153.26 88.16"/><polygon class="cls-6" points="153.26 88.16 163.32 76.09 163.61 74.19 153.55 86.26 153.26 88.16"/><polygon class="cls-6" points="131.15 76.18 131.15 87.24 132.71 88.16 132.71 76.18 131.15 76.18"/><path class="cls-8" d="M119.79,184.62v4.44h5.6v2.29h-5.6v4.53h7.11v2.38H116.8v-16h10.1v2.37Z"/><path class="cls-8" d="M143,182.25v16H141.5a1.34,1.34,0,0,1-.59-.12,1.38,1.38,0,0,1-.46-.39l-8.36-10.67q.07.73.07,1.35v9.83h-2.62v-16h1.56l.33,0a.79.79,0,0,1,.24.07.8.8,0,0,1,.21.14,2.35,2.35,0,0,1,.22.25l8.39,10.72q0-.39-.05-.76c0-.25,0-.48,0-.7v-9.73Z"/><path class="cls-8" d="M149.61,184.62v4.44h5.6v2.29h-5.6v4.53h7.11v2.38h-10.1v-16h10.1v2.37Z"/><path class="cls-8" d="M171.85,198.26h-2.69a1.18,1.18,0,0,1-1.11-.6l-3.37-5.13a1.18,1.18,0,0,0-.42-.41,1.46,1.46,0,0,0-.67-.12h-1.27v6.26h-3v-16h4.88a10.15,10.15,0,0,1,2.8.34,5.35,5.35,0,0,1,1.92.95A3.7,3.7,0,0,1,170,185a4.8,4.8,0,0,1,.35,1.87,4.85,4.85,0,0,1-.24,1.53,4.44,4.44,0,0,1-.69,1.31,4.61,4.61,0,0,1-1.11,1,5.56,5.56,0,0,1-1.5.7,2.9,2.9,0,0,1,.53.39,2.8,2.8,0,0,1,.44.54Zm-7.66-8.39a4.6,4.6,0,0,0,1.47-.21,2.84,2.84,0,0,0,1-.58,2.34,2.34,0,0,0,.6-.88,3,3,0,0,0,.2-1.12,2.27,2.27,0,0,0-.8-1.87,3.84,3.84,0,0,0-2.45-.65h-1.9v5.31Z"/><path class="cls-8" d="M186.57,190.23v6.48A8.48,8.48,0,0,1,184,198a10.18,10.18,0,0,1-3,.42,9.85,9.85,0,0,1-3.55-.61,7.94,7.94,0,0,1-2.71-1.69,7.41,7.41,0,0,1-1.73-2.59,8.68,8.68,0,0,1-.61-3.29,9.06,9.06,0,0,1,.59-3.31,7.3,7.3,0,0,1,4.29-4.27,9.48,9.48,0,0,1,3.45-.6,10.15,10.15,0,0,1,1.82.15,9.23,9.23,0,0,1,1.57.43,6.83,6.83,0,0,1,1.32.66,8,8,0,0,1,1.1.85l-.85,1.35a.82.82,0,0,1-.52.39.93.93,0,0,1-.7-.16l-.73-.42a4.72,4.72,0,0,0-.81-.37,6.65,6.65,0,0,0-1-.25,7.42,7.42,0,0,0-1.29-.1,5.52,5.52,0,0,0-2.14.4,4.54,4.54,0,0,0-1.63,1.14,5.15,5.15,0,0,0-1,1.78,7,7,0,0,0-.37,2.33,7.12,7.12,0,0,0,.39,2.45,5.16,5.16,0,0,0,1.11,1.83,4.73,4.73,0,0,0,1.72,1.14,6.68,6.68,0,0,0,3.83.21,7.82,7.82,0,0,0,1.36-.51v-2.9h-2a.61.61,0,0,1-.45-.16.54.54,0,0,1-.16-.39v-1.68Z"/><path class="cls-8" d="M196.3,192.06v6.2h-3v-6.2l-5.83-9.81h2.62a.93.93,0,0,1,.61.19,1.59,1.59,0,0,1,.38.48l2.92,5.35q.25.48.45.9t.35.84q.14-.42.33-.84t.43-.9l2.91-5.35a1.47,1.47,0,0,1,.37-.45.91.91,0,0,1,.62-.21h2.63Z"/></svg>