<svg id="Ebene_1" data-name="Ebene 1" xmlns="http://www.w3.org/2000/svg" viewBox="0 0 289.51 213.04"><defs><style>.cls-1{fill:#ab733b;}.cls-2{fill:#70ab00;}.cls-3{fill:#82b800;}.cls-4{fill:#916130;}.cls-5{fill:#578500;}.cls-6{fill:#699400;}.cls-7{fill:#8ac6c6;}</style></defs><title>numa_waste</title><polygon class="cls-1" points="110.5 101.12 130.71 117.83 130.22 111.53 111.07 99.97 110.5 101.12"/><polygon class="cls-1" points="155.88 113.33 135.74 130.13 136.2 123.82 155.31 112.19 155.88 113.33"/><polygon class="cls-1" points="137.12 143.71 129.39 143.72 130.93 84.19 135.08 84.19 137.12 143.71"/><path class="cls-2" d="M153.74,75.41a20.62,20.62,0,1,1-20.66-20.58,20.62,20.62,0,0,1,20.66,20.58"/><path class="cls-2" d="M170.86,110.23A14.23,14.23,0,1,1,156.6,96a14.24,14.24,0,0,1,14.26,14.2"/><path class="cls-3" d="M133.08,54.83h0a20.62,20.62,0,0,0,0,41.25h0Z"/><path class="cls-3" d="M156.6,96h0a14.23,14.23,0,0,0,0,28.46h0Z"/><rect class="cls-4" x="180.22" y="117.1" width="4.67" height="19.19"/><path class="cls-5" d="M191.41,51.22v68.16a7.87,7.87,0,0,1-7.86,7.86h-2a7.86,7.86,0,0,1-7.87-7.86V51.22a7.86,7.86,0,0,1,7.87-7.87h2a7.87,7.87,0,0,1,7.86,7.87"/><path class="cls-6" d="M182.56,43.35h-1a7.86,7.86,0,0,0-7.87,7.87v68.15a7.86,7.86,0,0,0,7.87,7.87h1Z"/><rect class="cls-4" x="203.91" y="136.77" width="3.98" height="7.56"/><path class="cls-2" d="M216,115.92c0,19.71-4.53,23.8-10.13,23.8s-10.12-4.1-10.12-23.8,4.53-47.57,10.12-47.57S216,96.21,216,115.92"/><path class="cls-3" d="M205.9,68.35c-5.59,0-10.12,27.86-10.12,47.57s4.53,23.8,10.12,23.8Z"/><rect class="cls-4" x="81.3" y="135.58" width="3.98" height="7.56"/><path class="cls-2" d="M93.38,112.87c0,19.71-4.53,23.8-10.13,23.8s-10.12-4.1-10.12-23.8S77.67,65.3,83.26,65.3s10.13,27.86,10.13,47.57"/><path class="cls-3" d="M83.32,65.3c-5.59,0-10.12,27.86-10.12,47.57s4.53,23.8,10.12,23.8Z"/><path class="cls-7" d="M78.46,181.19l-5,16H70.8l-3.5-10.94a7.31,7.31,0,0,1-.27-1l-.13.52q-.07.24-.14.45L63.23,197.2h-2.7l-5-16h2.49a1.1,1.1,0,0,1,.65.18.88.88,0,0,1,.35.49l2.72,9.58c.06.24.12.49.17.77l.17.87c.06-.31.12-.6.19-.87s.15-.53.23-.76l3.14-9.58a1.06,1.06,0,0,1,.35-.46,1,1,0,0,1,.64-.21h.88a1,1,0,0,1,.63.19,1.16,1.16,0,0,1,.37.49l3.13,9.58A13.86,13.86,0,0,1,72.1,193q.14-.87.32-1.58l2.72-9.58a.82.82,0,0,1,.34-.48,1.06,1.06,0,0,1,.65-.2Z"/><path class="cls-7" d="M93.22,197.2h-2.3a1,1,0,0,1-.63-.19,1.21,1.21,0,0,1-.37-.48l-1.2-3.27H82.09l-1.2,3.27a1.07,1.07,0,0,1-.34.47,1,1,0,0,1-.63.21H77.6l6.3-16h3Zm-5.26-6L86,185.83q-.14-.35-.3-.84t-.31-1.05q-.14.57-.3,1.06c-.1.33-.2.61-.3.86l-1.94,5.3Z"/><path class="cls-7" d="M103.76,184.1a1,1,0,0,1-.28.34.63.63,0,0,1-.37.11,1,1,0,0,1-.5-.17L102,184a5.36,5.36,0,0,0-.88-.38,3.7,3.7,0,0,0-1.19-.17,3.56,3.56,0,0,0-1.08.15A2.28,2.28,0,0,0,98,184a1.66,1.66,0,0,0-.47.64,2.09,2.09,0,0,0-.16.81,1.41,1.41,0,0,0,.32.94,2.64,2.64,0,0,0,.84.64,7.89,7.89,0,0,0,1.18.48l1.36.45a12.67,12.67,0,0,1,1.36.55,4.7,4.7,0,0,1,1.18.8,3.63,3.63,0,0,1,.84,1.18,4.11,4.11,0,0,1,.32,1.69,5.52,5.52,0,0,1-.37,2,4.69,4.69,0,0,1-1.08,1.65,5.12,5.12,0,0,1-1.74,1.11,6.44,6.44,0,0,1-2.36.4,7.62,7.62,0,0,1-1.51-.15,7.93,7.93,0,0,1-1.42-.43,7.68,7.68,0,0,1-1.28-.66,6.18,6.18,0,0,1-1.06-.86l.87-1.43a.94.94,0,0,1,.29-.26.72.72,0,0,1,.38-.1,1.06,1.06,0,0,1,.6.23q.32.23.76.5a6,6,0,0,0,1,.5,4,4,0,0,0,1.42.23,2.92,2.92,0,0,0,2-.6,2.17,2.17,0,0,0,.7-1.73,1.61,1.61,0,0,0-.32-1,2.54,2.54,0,0,0-.84-.67,6.2,6.2,0,0,0-1.18-.46L98.3,190a11.67,11.67,0,0,1-1.35-.53,4.35,4.35,0,0,1-1.18-.81,3.66,3.66,0,0,1-.84-1.25,4.73,4.73,0,0,1-.32-1.84A4.43,4.43,0,0,1,96,182.43a5,5,0,0,1,1.64-1,6,6,0,0,1,2.24-.39,7.47,7.47,0,0,1,2.61.44,5.88,5.88,0,0,1,2,1.24Z"/><path class="cls-7" d="M118.72,183.64h-4.83V197.2h-3V183.64h-4.83v-2.45h12.63Z"/><path class="cls-7" d="M123.68,183.56V188h5.6v2.29h-5.6v4.53h7.11v2.38h-10.1v-16h10.1v2.37Z"/><path class="cls-7" d="M152.56,197.2h-2.68a1.94,1.94,0,0,1-.68-.1,1.51,1.51,0,0,1-.55-.42l-1.11-1.14a8.23,8.23,0,0,1-2.36,1.35,8,8,0,0,1-2.82.49,5.37,5.37,0,0,1-1.81-.32,5,5,0,0,1-1.59-.91,4.6,4.6,0,0,1-1.12-1.45,4.19,4.19,0,0,1-.43-1.91,4.14,4.14,0,0,1,.24-1.42,4.78,4.78,0,0,1,.68-1.25,5.35,5.35,0,0,1,1-1,7.08,7.08,0,0,1,1.31-.79,6.14,6.14,0,0,1-.86-1.62,4.92,4.92,0,0,1-.27-1.58,4.14,4.14,0,0,1,.3-1.58,3.75,3.75,0,0,1,.88-1.3,4.21,4.21,0,0,1,1.42-.88A5.23,5.23,0,0,1,144,181a4.79,4.79,0,0,1,1.74.3,4.19,4.19,0,0,1,1.32.8,3.78,3.78,0,0,1,.86,1.14,3.64,3.64,0,0,1,.37,1.33l-1.74.37a.59.59,0,0,1-.71-.42,2.81,2.81,0,0,0-.26-.55,2,2,0,0,0-.38-.45,1.75,1.75,0,0,0-.52-.31,1.87,1.87,0,0,0-.69-.12,2,2,0,0,0-.83.16,1.81,1.81,0,0,0-.62.43,1.9,1.9,0,0,0-.38.63,2.18,2.18,0,0,0-.13.76,3.08,3.08,0,0,0,.07.64,2.63,2.63,0,0,0,.22.62,4.08,4.08,0,0,0,.4.64,8,8,0,0,0,.61.7l4.25,4.42a7.81,7.81,0,0,0,.59-1.47,8.16,8.16,0,0,0,.29-1.57.72.72,0,0,1,.18-.41.52.52,0,0,1,.4-.16h1.71a9.67,9.67,0,0,1-.42,2.79,9,9,0,0,1-1.17,2.45Zm-10.66-7.48a3.79,3.79,0,0,0-1.29,1.3,3.14,3.14,0,0,0-.4,1.56,2.73,2.73,0,0,0,.21,1.1,2.45,2.45,0,0,0,.57.83,2.52,2.52,0,0,0,.84.52,2.86,2.86,0,0,0,1,.18,5,5,0,0,0,1.78-.3,5.08,5.08,0,0,0,1.46-.85Z"/><path class="cls-7" d="M180.67,181.19l-5,16H173l-3.5-10.94a7.31,7.31,0,0,1-.27-1l-.13.52q-.07.24-.14.45l-3.53,10.94h-2.7l-5-16h2.49a1.1,1.1,0,0,1,.65.18.88.88,0,0,1,.35.49l2.72,9.58c.06.24.12.49.17.77l.17.87c.06-.31.12-.6.19-.87s.15-.53.23-.76l3.14-9.58a1.06,1.06,0,0,1,.35-.46,1,1,0,0,1,.64-.21h.88a1,1,0,0,1,.63.19,1.16,1.16,0,0,1,.37.49l3.13,9.58a13.86,13.86,0,0,1,.42,1.58q.14-.87.32-1.58l2.72-9.58a.82.82,0,0,1,.34-.48,1.06,1.06,0,0,1,.65-.2Z"/><path class="cls-7" d="M195.45,197.2h-2.3a1,1,0,0,1-.63-.19,1.21,1.21,0,0,1-.37-.48l-1.2-3.27h-6.63l-1.2,3.27a1.07,1.07,0,0,1-.34.47,1,1,0,0,1-.63.21h-2.33l6.3-16h3Zm-5.26-6-1.95-5.33q-.14-.35-.3-.84t-.31-1.05q-.14.57-.3,1.06c-.1.33-.2.61-.3.86l-1.94,5.3Z"/><path class="cls-7" d="M206.76,183.64h-4.83V197.2h-3V183.64h-4.83v-2.45h12.63Z"/><path class="cls-7" d="M211.72,183.56V188h5.6v2.29h-5.6v4.53h7.11v2.38h-10.1v-16h10.1v2.37Z"/><path class="cls-7" d="M233.95,197.2h-2.69a1.18,1.18,0,0,1-1.11-.6l-3.37-5.13a1.18,1.18,0,0,0-.42-.41,1.46,1.46,0,0,0-.67-.12h-1.27v6.26h-3v-16h4.88a10.17,10.17,0,0,1,2.8.34,5.35,5.35,0,0,1,1.92.95,3.7,3.7,0,0,1,1.1,1.46,5.07,5.07,0,0,1,.12,3.39,4.45,4.45,0,0,1-.69,1.31,4.62,4.62,0,0,1-1.11,1,5.55,5.55,0,0,1-1.5.7,3,3,0,0,1,.53.39,2.79,2.79,0,0,1,.44.54Zm-7.66-8.39a4.63,4.63,0,0,0,1.47-.21,2.84,2.84,0,0,0,1-.58,2.34,2.34,0,0,0,.6-.88,3,3,0,0,0,.2-1.12,2.27,2.27,0,0,0-.8-1.87,3.84,3.84,0,0,0-2.45-.65h-1.9v5.31Z"/></svg>