<svg id="Ebene_1" data-name="Ebene 1" xmlns="http://www.w3.org/2000/svg" viewBox="0 0 289.51 213.04"><defs><style>.cls-1{fill:#8ac6c6;}.cls-2{fill:#b0d600;}.cls-3{fill:#a3d4de;}.cls-4{fill:#878a8c;}.cls-5{fill:#5e4242;}</style></defs><title>numa_mobility</title><path class="cls-1" d="M41.63,182.42v16H39V188.09q0-.62.07-1.34l-4.84,9.09a1.12,1.12,0,0,1-1.05.65h-.42a1.12,1.12,0,0,1-1.05-.65l-4.89-9.12q0,.36.06.72t0,.65v10.34H24.27v-16h2.59a1,1,0,0,1,.26.06.56.56,0,0,1,.21.14,1.25,1.25,0,0,1,.18.27l4.79,8.89q.19.35.35.73t.32.77c.1-.27.21-.54.32-.79s.23-.5.35-.74l4.73-8.87a1.13,1.13,0,0,1,.19-.27.61.61,0,0,1,.22-.14,1,1,0,0,1,.26-.06h2.59Z"/><path class="cls-1" d="M60.53,190.42a9,9,0,0,1-.58,3.26,7.65,7.65,0,0,1-1.64,2.6A7.45,7.45,0,0,1,55.74,198a9.26,9.26,0,0,1-6.63,0,7.51,7.51,0,0,1-2.56-1.71,7.68,7.68,0,0,1-1.66-2.6,9.36,9.36,0,0,1,0-6.52,7.69,7.69,0,0,1,1.66-2.6,7.53,7.53,0,0,1,2.56-1.71,8.62,8.62,0,0,1,3.31-.62,9,9,0,0,1,2.29.28,8,8,0,0,1,2,.8,7.26,7.26,0,0,1,1.61,1.25,7.61,7.61,0,0,1,1.21,1.64,8,8,0,0,1,.76,2A9.38,9.38,0,0,1,60.53,190.42Zm-3,0a7.36,7.36,0,0,0-.35-2.36,5.06,5.06,0,0,0-1-1.78,4.32,4.32,0,0,0-1.59-1.12,5.94,5.94,0,0,0-4.22,0,4.37,4.37,0,0,0-1.59,1.12,5,5,0,0,0-1,1.78,8.06,8.06,0,0,0,0,4.73,5,5,0,0,0,1,1.77,4.39,4.39,0,0,0,1.59,1.11,5.93,5.93,0,0,0,4.22,0,4.34,4.34,0,0,0,1.59-1.11,5,5,0,0,0,1-1.77A7.36,7.36,0,0,0,57.48,190.42Z"/><path class="cls-1" d="M68.73,182.42a10.54,10.54,0,0,1,2.69.3,5.12,5.12,0,0,1,1.83.85,3.31,3.31,0,0,1,1,1.34,4.51,4.51,0,0,1,.33,1.77,3.49,3.49,0,0,1-.17,1.08,3.13,3.13,0,0,1-.51,1,3.88,3.88,0,0,1-.89.81,5.39,5.39,0,0,1-1.28.62q3.3.74,3.3,3.56a4.55,4.55,0,0,1-.39,1.88,4.15,4.15,0,0,1-1.13,1.49,5.4,5.4,0,0,1-1.83,1,8,8,0,0,1-2.48.35h-6v-16Zm-2.54,2.3v4.63h2.37a4,4,0,0,0,2.31-.55,2,2,0,0,0,.78-1.76,2.09,2.09,0,0,0-.71-1.78,3.7,3.7,0,0,0-2.21-.53Zm3,11.38a4.23,4.23,0,0,0,1.4-.2,2.4,2.4,0,0,0,.9-.53,2,2,0,0,0,.49-.78,2.92,2.92,0,0,0,.15-.94,2.5,2.5,0,0,0-.17-.94,1.75,1.75,0,0,0-.52-.71,2.44,2.44,0,0,0-.91-.45,5.08,5.08,0,0,0-1.35-.16h-3v4.69Z"/><path class="cls-1" d="M80.9,198.43h-3v-16h3Z"/><path class="cls-1" d="M93.88,196v2.46H84.5v-16h3V196Z"/><path class="cls-1" d="M98.84,198.43h-3v-16h3Z"/><path class="cls-1" d="M113.44,184.87h-4.83v13.56h-3V184.87h-4.83v-2.45h12.63Z"/><path class="cls-1" d="M123.17,192.23v6.2h-3v-6.2l-5.83-9.81H117a.94.94,0,0,1,.61.19,1.6,1.6,0,0,1,.38.48l2.92,5.35q.25.48.45.9t.35.84q.14-.42.33-.84t.43-.9l2.91-5.35a1.48,1.48,0,0,1,.37-.45.92.92,0,0,1,.62-.21H129Z"/><path class="cls-1" d="M149.75,198.43h-2.68a1.94,1.94,0,0,1-.68-.1,1.51,1.51,0,0,1-.55-.42l-1.11-1.14a8.21,8.21,0,0,1-2.36,1.35,8,8,0,0,1-2.82.49,5.37,5.37,0,0,1-1.81-.32,5,5,0,0,1-1.59-.91,4.6,4.6,0,0,1-1.12-1.45,4.19,4.19,0,0,1-.43-1.91,4.13,4.13,0,0,1,.24-1.42,4.79,4.79,0,0,1,.68-1.25,5.38,5.38,0,0,1,1-1,7.08,7.08,0,0,1,1.31-.79,6.15,6.15,0,0,1-.86-1.62,4.93,4.93,0,0,1-.27-1.58,4.14,4.14,0,0,1,.3-1.58,3.74,3.74,0,0,1,.88-1.3,4.22,4.22,0,0,1,1.42-.88,5.23,5.23,0,0,1,1.9-.33,4.79,4.79,0,0,1,1.74.3,4.2,4.2,0,0,1,1.32.8,3.79,3.79,0,0,1,.86,1.14,3.65,3.65,0,0,1,.37,1.33l-1.74.37a.59.59,0,0,1-.71-.42,2.79,2.79,0,0,0-.26-.55,2,2,0,0,0-.38-.45,1.73,1.73,0,0,0-.52-.31,1.87,1.87,0,0,0-.69-.12,2.06,2.06,0,0,0-.83.16,1.82,1.82,0,0,0-.61.43,1.9,1.9,0,0,0-.38.63,2.17,2.17,0,0,0-.13.76,3.08,3.08,0,0,0,.07.64,2.61,2.61,0,0,0,.22.62,4,4,0,0,0,.4.64,7.91,7.91,0,0,0,.61.7l4.25,4.42a7.71,7.71,0,0,0,.59-1.47,8.2,8.2,0,0,0,.29-1.57.72.72,0,0,1,.18-.41.52.52,0,0,1,.4-.16H148a9.67,9.67,0,0,1-.42,2.79A9,9,0,0,1,146.4,195Zm-10.66-7.48a3.79,3.79,0,0,0-1.29,1.3,3.14,3.14,0,0,0-.4,1.56,2.74,2.74,0,0,0,.21,1.1,2.45,2.45,0,0,0,.57.83,2.52,2.52,0,0,0,.84.52,2.86,2.86,0,0,0,1,.18,5,5,0,0,0,1.78-.3,5.08,5.08,0,0,0,1.46-.85Z"/><path class="cls-1" d="M166,196v2.46h-9.38v-16h3V196Z"/><path class="cls-1" d="M182.89,190.42a9,9,0,0,1-.58,3.26,7.66,7.66,0,0,1-1.64,2.6,7.46,7.46,0,0,1-2.56,1.71,9.26,9.26,0,0,1-6.63,0,7.51,7.51,0,0,1-2.56-1.71,7.68,7.68,0,0,1-1.66-2.6,9.36,9.36,0,0,1,0-6.52,7.69,7.69,0,0,1,1.66-2.6,7.53,7.53,0,0,1,2.56-1.71,8.62,8.62,0,0,1,3.31-.62,9,9,0,0,1,2.29.28,8,8,0,0,1,2,.8,7.29,7.29,0,0,1,1.61,1.25,7.59,7.59,0,0,1,1.21,1.64,8.06,8.06,0,0,1,.76,2A9.35,9.35,0,0,1,182.89,190.42Zm-3,0a7.35,7.35,0,0,0-.35-2.36,5.06,5.06,0,0,0-1-1.78,4.32,4.32,0,0,0-1.59-1.12,5.94,5.94,0,0,0-4.22,0,4.37,4.37,0,0,0-1.59,1.12,5,5,0,0,0-1,1.78,8.06,8.06,0,0,0,0,4.73,5,5,0,0,0,1,1.77,4.39,4.39,0,0,0,1.59,1.11,5.93,5.93,0,0,0,4.22,0,4.34,4.34,0,0,0,1.59-1.11,5,5,0,0,0,1-1.77A7.34,7.34,0,0,0,179.85,190.42Z"/><path class="cls-1" d="M198.76,190.4v6.48a8.49,8.49,0,0,1-2.6,1.31,10.16,10.16,0,0,1-3,.42,9.84,9.84,0,0,1-3.55-.61,7.94,7.94,0,0,1-2.71-1.69,7.42,7.42,0,0,1-1.73-2.59,8.68,8.68,0,0,1-.61-3.29,9.06,9.06,0,0,1,.59-3.31,7.29,7.29,0,0,1,4.29-4.27,9.45,9.45,0,0,1,3.45-.6,10.1,10.1,0,0,1,1.82.16,9.14,9.14,0,0,1,1.57.43,6.83,6.83,0,0,1,1.32.66,8,8,0,0,1,1.1.85l-.85,1.35a.81.81,0,0,1-.52.39.93.93,0,0,1-.7-.16l-.73-.42a4.69,4.69,0,0,0-.81-.37,6.77,6.77,0,0,0-1-.25,7.42,7.42,0,0,0-1.29-.1,5.53,5.53,0,0,0-2.14.4,4.53,4.53,0,0,0-1.63,1.14,5.15,5.15,0,0,0-1,1.78,7,7,0,0,0-.37,2.33,7.12,7.12,0,0,0,.39,2.45,5.16,5.16,0,0,0,1.11,1.83,4.74,4.74,0,0,0,1.72,1.14,6.15,6.15,0,0,0,2.25.39,6.06,6.06,0,0,0,1.58-.19,7.78,7.78,0,0,0,1.36-.51v-2.9h-2a.61.61,0,0,1-.45-.16.54.54,0,0,1-.16-.39V190.4Z"/><path class="cls-1" d="M204.89,198.43h-3v-16h3Z"/><path class="cls-1" d="M217,185.33a1,1,0,0,1-.28.34.63.63,0,0,1-.37.11,1,1,0,0,1-.5-.17l-.65-.38a5.36,5.36,0,0,0-.88-.38,3.7,3.7,0,0,0-1.19-.17,3.56,3.56,0,0,0-1.08.15,2.28,2.28,0,0,0-.78.42,1.66,1.66,0,0,0-.47.64,2.09,2.09,0,0,0-.16.81,1.41,1.41,0,0,0,.32.94,2.64,2.64,0,0,0,.84.64,7.89,7.89,0,0,0,1.18.48l1.36.45a12.67,12.67,0,0,1,1.36.55,4.7,4.7,0,0,1,1.18.8,3.63,3.63,0,0,1,.84,1.18,4.11,4.11,0,0,1,.32,1.69,5.52,5.52,0,0,1-.37,2,4.69,4.69,0,0,1-1.08,1.65,5.12,5.12,0,0,1-1.74,1.11,6.44,6.44,0,0,1-2.36.4,7.62,7.62,0,0,1-1.51-.15,7.93,7.93,0,0,1-1.42-.43,7.68,7.68,0,0,1-1.28-.66,6.18,6.18,0,0,1-1.06-.86l.87-1.43a.94.94,0,0,1,.29-.26.72.72,0,0,1,.38-.1,1.06,1.06,0,0,1,.6.23q.32.23.76.5a6,6,0,0,0,1,.5,4,4,0,0,0,1.42.23,2.92,2.92,0,0,0,2-.6,2.17,2.17,0,0,0,.7-1.73,1.61,1.61,0,0,0-.32-1,2.54,2.54,0,0,0-.84-.67,6.2,6.2,0,0,0-1.18-.46l-1.35-.41a11.67,11.67,0,0,1-1.35-.53,4.35,4.35,0,0,1-1.18-.81,3.66,3.66,0,0,1-.84-1.25,4.73,4.73,0,0,1-.32-1.84,4.43,4.43,0,0,1,1.36-3.18,5,5,0,0,1,1.64-1,6,6,0,0,1,2.24-.39,7.47,7.47,0,0,1,2.61.44,5.88,5.88,0,0,1,2,1.24Z"/><path class="cls-1" d="M232,184.87h-4.83v13.56h-3V184.87h-4.83v-2.45H232Z"/><path class="cls-1" d="M237,198.43h-3v-16h3Z"/><path class="cls-1" d="M251.59,194.65a.59.59,0,0,1,.43.19l1.17,1.27a6.45,6.45,0,0,1-2.4,1.85,8.27,8.27,0,0,1-3.42.64,8.06,8.06,0,0,1-3.21-.61,7.07,7.07,0,0,1-2.43-1.69,7.42,7.42,0,0,1-1.54-2.59,9.71,9.71,0,0,1-.54-3.29,9.13,9.13,0,0,1,.58-3.3,7.57,7.57,0,0,1,1.62-2.59,7.35,7.35,0,0,1,2.5-1.69,8.28,8.28,0,0,1,3.21-.6,7.89,7.89,0,0,1,3.11.58,7.4,7.4,0,0,1,2.31,1.51l-1,1.38a.9.9,0,0,1-.23.23.64.64,0,0,1-.38.1.73.73,0,0,1-.34-.09l-.39-.23-.49-.3a4,4,0,0,0-.64-.3,5.28,5.28,0,0,0-.85-.23,5.87,5.87,0,0,0-1.11-.09,4.94,4.94,0,0,0-2,.38,4.27,4.27,0,0,0-1.53,1.11,5.09,5.09,0,0,0-1,1.77,7.42,7.42,0,0,0-.35,2.39,7,7,0,0,0,.38,2.4,5.28,5.28,0,0,0,1,1.77,4.41,4.41,0,0,0,1.54,1.1,4.76,4.76,0,0,0,1.9.38,8.18,8.18,0,0,0,1.1-.07,4.69,4.69,0,0,0,.91-.21,4,4,0,0,0,.79-.37,5,5,0,0,0,.74-.56,1.06,1.06,0,0,1,.23-.16A.57.57,0,0,1,251.59,194.65Z"/><path class="cls-1" d="M264.22,185.33a1,1,0,0,1-.28.34.63.63,0,0,1-.37.11,1,1,0,0,1-.5-.17l-.65-.38a5.36,5.36,0,0,0-.88-.38,3.7,3.7,0,0,0-1.19-.17,3.56,3.56,0,0,0-1.08.15,2.28,2.28,0,0,0-.78.42,1.66,1.66,0,0,0-.47.64,2.09,2.09,0,0,0-.16.81,1.41,1.41,0,0,0,.32.94,2.64,2.64,0,0,0,.84.64,7.89,7.89,0,0,0,1.18.48l1.36.45a12.67,12.67,0,0,1,1.36.55,4.7,4.7,0,0,1,1.18.8,3.63,3.63,0,0,1,.84,1.18,4.11,4.11,0,0,1,.32,1.69,5.52,5.52,0,0,1-.37,2,4.69,4.69,0,0,1-1.08,1.65A5.12,5.12,0,0,1,262,198.2a6.44,6.44,0,0,1-2.36.4,7.62,7.62,0,0,1-1.51-.15,7.93,7.93,0,0,1-1.42-.43,7.68,7.68,0,0,1-1.28-.66,6.18,6.18,0,0,1-1.06-.86l.87-1.43a.94.94,0,0,1,.29-.26.72.72,0,0,1,.38-.1,1.06,1.06,0,0,1,.6.23q.32.23.76.5a6,6,0,0,0,1,.5,4,4,0,0,0,1.42.23,2.92,2.92,0,0,0,2-.6,2.17,2.17,0,0,0,.7-1.73,1.61,1.61,0,0,0-.32-1,2.54,2.54,0,0,0-.84-.67,6.2,6.2,0,0,0-1.18-.46l-1.35-.41a11.67,11.67,0,0,1-1.35-.53,4.35,4.35,0,0,1-1.18-.81,3.66,3.66,0,0,1-.84-1.25,4.73,4.73,0,0,1-.32-1.84,4.43,4.43,0,0,1,1.36-3.18,5,5,0,0,1,1.64-1,6,6,0,0,1,2.24-.39,7.47,7.47,0,0,1,2.61.44,5.88,5.88,0,0,1,2,1.24Z"/><polygon class="cls-2" points="88.34 75.57 80.87 133.14 205.06 133.14 208.64 111.84 187.44 75.57 88.34 75.57"/><polygon class="cls-3" points="162.37 79.89 186.25 79.89 199.98 104.36 162.37 104.36 162.37 79.89"/><path class="cls-4" d="M189.86,137c-3.6,6.92-11.57,10.09-17.81,7.07s-8.37-11.07-4.77-18S178.86,116,185.1,119s8.37,11.07,4.77,18"/><path class="cls-5" d="M184.43,134.38c-1.87,3.59-6,5.23-9.23,3.67s-4.34-5.74-2.47-9.33,6-5.23,9.23-3.66,4.34,5.74,2.47,9.32"/><path class="cls-4" d="M116.73,137c-3.6,6.92-11.57,10.09-17.81,7.07s-8.37-11.07-4.77-18S105.73,116,112,119s8.37,11.07,4.77,18"/><path class="cls-5" d="M111.29,134.38c-1.87,3.59-6,5.23-9.23,3.67s-4.34-5.74-2.47-9.33,6-5.23,9.23-3.66,4.34,5.74,2.47,9.32"/></svg>