<svg id="Ebene_1" data-name="Ebene 1" xmlns="http://www.w3.org/2000/svg" xmlns:xlink="http://www.w3.org/1999/xlink" viewBox="0 0 289.51 213.04"><defs><style>.cls-1{fill:none;}.cls-2{fill:#ffa859;}.cls-3{fill:#d9d9de;}.cls-4{fill:#ff8c36;}.cls-5{fill:#576e87;}.cls-6{fill:#ab8c87;}.cls-7{fill:#47332e;}.cls-8{fill:#634a47;}.cls-9{fill:#ab8f75;}.cls-10{fill:#00b8c7;}.cls-11{fill:#005269;}.cls-12{fill:#007d5e;}.cls-13{fill:#7dc2c2;}.cls-14{fill:#fff;}.cls-15{clip-path:url(#clip-path);}.cls-16{fill:#7aad00;}.cls-17{fill:#8cba00;}.cls-18{fill:#916130;}.cls-19{fill:#70ab00;}.cls-20{fill:#82b800;}.cls-21{fill:#008f70;}.cls-22{fill:#4042a1;}.cls-23{fill:#6b8096;}.cls-24{fill:#8ac6c6;}</style><clipPath id="clip-path"><rect class="cls-1" width="289.51" height="213.04"/></clipPath></defs><title>numa_building</title><polygon class="cls-2" points="207.34 151.81 207.35 151.91 207.35 151.81 207.34 151.81"/><polygon class="cls-3" points="111.06 61.86 137.64 75.71 137.64 99.44 137.61 99.44 137.61 106.88 137.61 130.61 111.06 115.98 111.06 61.86"/><polygon class="cls-4" points="137.64 99.45 137.64 75.71 164.19 61.86 164.19 114.14 137.61 130.61 137.61 106.88 137.64 106.88 137.64 99.45"/><polygon class="cls-5" points="111.06 61.86 137.64 48.03 164.19 61.86 137.64 75.71 111.06 61.86"/><polygon class="cls-6" points="136.94 55.28 130.59 51.98 136.94 51.74 143.26 55.05 136.94 55.28"/><polygon class="cls-7" points="130.59 51.98 136.94 55.28 136.94 59.59 130.59 56.28 130.59 51.98"/><polygon class="cls-8" points="143.26 55.05 143.26 56.28 136.94 59.59 136.94 55.28 143.26 55.05"/><polygon class="cls-6" points="145.4 59.56 139.06 56.26 145.4 56.03 151.72 59.33 145.4 59.56"/><polygon class="cls-8" points="151.72 59.33 151.72 60.57 145.4 63.87 145.4 59.56 151.72 59.33"/><polygon class="cls-7" points="139.06 56.26 145.41 59.56 145.41 63.87 139.06 60.57 139.06 56.26"/><polygon class="cls-9" points="148.62 88.34 154.02 85.28 154.02 74.94 148.62 77.97 148.62 88.34"/><polygon class="cls-9" points="146.82 78.97 140.81 82.34 140.81 92.76 146.82 89.35 146.82 78.97"/><polygon class="cls-9" points="155.82 73.94 155.82 84.26 161.32 81.14 161.32 70.86 155.82 73.94"/><polygon class="cls-6" points="126.53 88.56 121.13 85.5 121.13 75.17 126.53 78.19 126.53 88.56"/><polygon class="cls-6" points="128.33 79.2 134.34 82.56 134.34 92.98 128.33 89.58 128.33 79.2"/><polygon class="cls-6" points="119.33 74.16 119.33 84.48 113.83 81.36 113.83 71.08 119.33 74.16"/><polygon class="cls-6" points="126.53 104.54 121.13 101.48 121.13 91.15 126.53 94.17 126.53 104.54"/><polygon class="cls-6" points="128.33 95.18 134.34 98.55 134.34 108.96 128.33 105.56 128.33 95.18"/><polygon class="cls-6" points="119.33 90.14 119.33 100.47 113.83 97.35 113.83 87.06 119.33 90.14"/><polygon class="cls-9" points="148.62 104.54 154.02 101.48 154.02 91.15 148.62 94.17 148.62 104.54"/><polygon class="cls-9" points="146.82 95.18 140.81 98.55 140.81 108.96 146.82 105.56 146.82 95.18"/><polygon class="cls-9" points="155.82 90.14 155.82 100.47 161.32 97.35 161.32 87.06 155.82 90.14"/><polygon class="cls-7" points="126.3 124.47 118.6 120.16 118.6 105.38 126.3 109.69 126.3 124.47"/><polygon class="cls-10" points="177.16 151.28 137.61 130.63 137.61 69.93 158.48 80.8 158.48 111.01 177.16 120.75 177.16 151.28"/><path class="cls-11" d="M177.16,151.28V120.75l24.66-12.84v29.55Zm6-83.32V98.2L158.48,111V80.8Z"/><polygon class="cls-12" points="183.14 67.96 158.48 80.8 137.61 69.92 162.27 57.09 183.14 67.96"/><polygon class="cls-13" points="183.14 98.2 201.82 107.91 177.16 120.75 158.48 111.01 183.14 98.2"/><polygon class="cls-10" points="174.74 100.14 180.52 103.15 180.52 112.32 168.28 105.92 168.28 84.85 174.74 88.2 174.74 100.14"/><path class="cls-11" d="M180.52,112.32v-9.17l7.66-4v9.17Zm-5.78-24.12,7.66-4v12l-7.66,4Z"/><polygon class="cls-13" points="174.74 88.2 168.28 84.85 175.91 80.86 182.4 84.22 174.74 88.2"/><polygon class="cls-13" points="180.52 103.15 174.74 100.14 182.4 96.18 188.18 99.17 180.52 103.15"/><polygon class="cls-8" points="194.8 130.19 198.11 128.45 198.11 122.6 194.8 124.43 194.8 130.19"/><polygon class="cls-8" points="194.8 121.45 198.11 119.72 198.11 113.73 194.8 115.46 194.8 121.45"/><polygon class="cls-8" points="186.78 128.87 183.14 130.89 183.14 136.29 186.78 134.39 186.78 128.87"/><polygon class="cls-8" points="189.11 124.43 192.47 122.68 192.47 116.67 189.11 118.42 189.11 124.43"/><polygon class="cls-8" points="192.47 125.72 189.11 127.58 189.11 133.17 192.47 131.41 192.47 125.72"/><polygon class="cls-8" points="192.47 140.08 192.47 134.48 189.11 136.34 189.11 141.96 192.47 140.08"/><polygon class="cls-8" points="186.78 137.63 183.14 139.64 183.14 145.31 186.78 143.27 186.78 137.63"/><polygon class="cls-8" points="186.78 125.65 186.78 119.64 183.14 121.53 183.14 127.56 186.78 125.65"/><polygon class="cls-8" points="198.11 131.35 194.8 133.19 194.8 138.77 198.11 136.91 198.11 131.35"/><polygon class="cls-14" points="143.88 95.32 140.57 93.58 140.57 87.73 143.88 89.56 143.88 95.32"/><polygon class="cls-14" points="143.88 86.58 140.57 84.85 140.57 78.86 143.88 80.59 143.88 86.58"/><polygon class="cls-14" points="151.91 94 155.54 96.02 155.54 101.42 151.91 99.52 151.91 94"/><polygon class="cls-14" points="149.57 89.56 146.22 87.81 146.22 81.8 149.57 83.55 149.57 89.56"/><polygon class="cls-14" points="146.22 90.85 149.57 92.71 149.57 98.3 146.22 96.54 146.22 90.85"/><polygon class="cls-14" points="146.22 105.21 146.22 99.61 149.57 101.46 149.57 107.09 146.22 105.21"/><polygon class="cls-14" points="151.91 102.75 155.54 104.77 155.54 110.43 151.91 108.4 151.91 102.75"/><polygon class="cls-14" points="151.91 90.78 151.91 84.77 155.54 86.66 155.54 92.68 151.91 90.78"/><polygon class="cls-14" points="140.57 96.48 143.88 98.31 143.88 103.9 140.57 102.05 140.57 96.48"/><polygon class="cls-14" points="143.88 121.83 140.57 120.09 140.57 114.23 143.88 116.07 143.88 121.83"/><polygon class="cls-14" points="143.88 113.09 140.57 111.36 140.57 105.37 143.88 107.1 143.88 113.09"/><polygon class="cls-14" points="151.91 120.51 155.54 122.52 155.54 127.93 151.91 126.02 151.91 120.51"/><polygon class="cls-14" points="149.57 116.07 146.22 114.31 146.22 108.31 149.57 110.06 149.57 116.07"/><polygon class="cls-14" points="146.22 117.36 149.57 119.22 149.57 124.8 146.22 123.05 146.22 117.36"/><polygon class="cls-14" points="151.91 117.29 151.91 111.27 155.54 113.17 155.54 119.19 151.91 117.29"/><polygon class="cls-14" points="140.57 122.99 149.57 127.76 149.57 136.88 140.57 132.18 140.57 122.99"/><polygon class="cls-14" points="161.31 130.86 157.99 129.12 157.99 123.27 161.31 125.1 161.31 130.86"/><polygon class="cls-14" points="161.31 122.12 157.99 120.39 157.99 114.4 161.31 116.13 161.31 122.12"/><polygon class="cls-14" points="169.33 129.54 172.97 131.56 172.97 136.96 169.33 135.06 169.33 129.54"/><polygon class="cls-14" points="167 125.1 163.64 123.34 163.64 117.34 167 119.09 167 125.1"/><polygon class="cls-14" points="163.64 126.39 167 128.25 167 133.84 163.64 132.08 163.64 126.39"/><polygon class="cls-14" points="169.33 126.32 169.33 120.31 172.97 122.2 172.97 128.22 169.33 126.32"/><g class="cls-15"><path class="cls-16" d="M128.32,47.77c-.3.5-.64.59-.91.44s-.35-.51-.06-1a2.55,2.55,0,0,1,1.12-.8,2.55,2.55,0,0,1-.16,1.37"/><path class="cls-17" d="M128.47,46.39a2.55,2.55,0,0,0-1.12.8,1.15,1.15,0,0,0-.18.57.48.48,0,0,0,.22.43h0a.31.31,0,0,1,.09-.1Z"/><path class="cls-16" d="M127.7,48.82c-.35-.21-.42-.45-.31-.63s.35-.25.7,0a1.76,1.76,0,0,1,.57.78,1.79,1.79,0,0,1-1-.11"/><path class="cls-17" d="M127.7,48a.36.36,0,0,0-.22.07.34.34,0,0,0-.09.1l1.27.75a1.79,1.79,0,0,0-.56-.79.81.81,0,0,0-.4-.13"/><path class="cls-16" d="M124.3,48.92c.3.5.64.59.91.44s.35-.51.06-1a2.53,2.53,0,0,0-1.12-.8,2.54,2.54,0,0,0,.16,1.37"/><path class="cls-17" d="M124.15,47.54l1,1.69a.36.36,0,0,1,.09.1h0a.49.49,0,0,0,.22-.43,1.13,1.13,0,0,0-.18-.57,2.53,2.53,0,0,0-1.12-.8"/><path class="cls-16" d="M124.92,50c.35-.2.42-.45.31-.63s-.35-.25-.7,0a1.79,1.79,0,0,0-.56.79,1.77,1.77,0,0,0,1-.11"/><path class="cls-17" d="M124.92,49.16a.82.82,0,0,0-.4.13,1.79,1.79,0,0,0-.56.79l1.27-.75a.36.36,0,0,0-.09-.1.35.35,0,0,0-.22-.07"/></g><rect class="cls-18" x="125.99" y="44.75" width="0.72" height="17.12"/><g class="cls-15"><path class="cls-18" d="M126.67,49.29l.77-1.2s-.54,1.47-.73,1.78"/><path class="cls-18" d="M126.13,50.75l-1-1.52s.68,1.86.92,2.25"/><path class="cls-19" d="M131,40.95a4.6,4.6,0,1,1-4.6-4.6,4.6,4.6,0,0,1,4.6,4.6"/><path class="cls-20" d="M126.35,36.35a4.6,4.6,0,0,0,0,9.2Z"/></g><rect class="cls-18" x="158.05" y="73.5" width="1.3" height="5.32"/><g class="cls-15"><path class="cls-19" d="M158.65,63.43v0l0,0s-3.88,4.17-3.88,7.62,2,4.24,3.88,4.24h0c1.84,0,3.88-.79,3.88-4.24s-3.88-7.62-3.88-7.62"/><path class="cls-21" d="M158.68,63.43l0,0,0,0v0Z"/><path class="cls-20" d="M158.67,63.45c-.28.3-3.86,4.28-3.86,7.6s2,4.22,3.81,4.24h.08V63.48l0,0"/><path class="cls-22" d="M104.95,110.23l0,0,0,0v0Z"/></g><rect class="cls-18" x="148.68" y="66.95" width="1.3" height="5.33"/><g class="cls-15"><path class="cls-19" d="M149.28,56.88v0l0,0s-3.88,4.17-3.88,7.62,2,4.24,3.88,4.24h0c1.84,0,3.88-.79,3.88-4.24s-3.88-7.62-3.88-7.62"/><path class="cls-23" d="M149.31,56.88l0,0,0,0v-.05Z"/><path class="cls-20" d="M149.29,56.9c-.28.3-3.86,4.28-3.86,7.6s2,4.24,3.86,4.24h0V56.93l0,0"/></g><rect class="cls-18" x="161.71" y="58.16" width="1.3" height="5.32"/><g class="cls-15"><path class="cls-19" d="M162.31,48.09l0,0v0s-3.88,4.17-3.88,7.62,2,4.24,3.88,4.24h0c1.84,0,3.88-.79,3.88-4.24s-3.88-7.62-3.88-7.62"/><path class="cls-14" d="M162.35,48.09l0,0,0,0v0Z"/></g><g class="cls-15"><path class="cls-20" d="M162.33,48.11c-.28.3-3.86,4.28-3.86,7.6s2,4.24,3.86,4.24h0V48.14l0,0"/><path class="cls-14" d="M103.86,7.22l0,0,0,0v0Z"/><path class="cls-14" d="M95.12,0l0,0,0,0V0Z"/><path class="cls-14" d="M76.71,5l0,0,0,0V5Z"/><path class="cls-14" d="M85.66,10.61l0,0h0Z"/><path class="cls-21" d="M85.67,10.62h0l0,0v0Z"/></g><g class="cls-15"><path class="cls-21" d="M94.54,16.54l0,0,0,0v0Z"/></g><rect class="cls-18" x="167.93" y="68.04" width="1.3" height="5.33"/><g class="cls-15"><path class="cls-19" d="M168.53,58l0,0v0s-3.88,4.17-3.88,7.62,2,4.24,3.88,4.24h0c1.84,0,3.88-.79,3.88-4.24S168.53,58,168.53,58"/><path class="cls-14" d="M168.56,58l0,0,0,0V58Z"/></g><g class="cls-15"><path class="cls-20" d="M168.55,58c-.28.3-3.86,4.28-3.86,7.6s2,4.22,3.82,4.24h.07V58l0,0"/></g><rect class="cls-18" x="176.59" y="63.52" width="1.3" height="5.33"/><g class="cls-15"><path class="cls-19" d="M177.19,53.45l0,0v0s-3.88,4.17-3.88,7.62,2,4.24,3.88,4.24h0c1.84,0,3.88-.79,3.88-4.24s-3.88-7.62-3.88-7.62"/><path class="cls-14" d="M177.22,53.45l0,0,0,0v0Z"/></g><g class="cls-15"><path class="cls-20" d="M177.2,53.47c-.28.3-3.86,4.28-3.86,7.6s2,4.24,3.86,4.24h0V53.51l0,0"/><path class="cls-19" d="M120.58,40.85a5.75,5.75,0,0,1,2-4.33l-.31-.31a6.19,6.19,0,0,0,.23,9.48l.31-.31a5.77,5.77,0,0,1-2.19-4.52"/><path class="cls-19" d="M132.13,40.85a5.76,5.76,0,0,1-2.2,4.52l.31.31a6.19,6.19,0,0,0,.23-9.48l-.31.31a5.75,5.75,0,0,1,2,4.33"/><path class="cls-19" d="M118.79,40.85a7.54,7.54,0,0,1,2.49-5.6l-.31-.31a8,8,0,0,0,.22,12l.31-.31a7.55,7.55,0,0,1-2.71-5.8"/><path class="cls-19" d="M133.92,40.85a7.55,7.55,0,0,1-2.71,5.8l.31.31a8,8,0,0,0,.22-12l-.31.31a7.53,7.53,0,0,1,2.49,5.6"/><path class="cls-19" d="M117.17,40.85a9.15,9.15,0,0,1,3-6.73l-.31-.31A9.58,9.58,0,0,0,120,48.1l.31-.31a9.14,9.14,0,0,1-3.19-6.94"/><path class="cls-19" d="M135.53,40.85a9.15,9.15,0,0,1-3.19,6.94l.31.31a9.58,9.58,0,0,0,.22-14.3l-.31.31a9.14,9.14,0,0,1,3,6.73"/></g><path class="cls-24" d="M29.44,182.53a10.54,10.54,0,0,1,2.69.3,5.12,5.12,0,0,1,1.83.85A3.31,3.31,0,0,1,35,185a4.51,4.51,0,0,1,.33,1.77,3.49,3.49,0,0,1-.17,1.08,3.13,3.13,0,0,1-.51,1,3.88,3.88,0,0,1-.89.81,5.39,5.39,0,0,1-1.28.62q3.3.74,3.3,3.56a4.55,4.55,0,0,1-.39,1.88,4.15,4.15,0,0,1-1.13,1.49,5.4,5.4,0,0,1-1.83,1,8,8,0,0,1-2.48.35h-6v-16Zm-2.54,2.3v4.63h2.37a4,4,0,0,0,2.31-.55,2,2,0,0,0,.78-1.76,2.09,2.09,0,0,0-.71-1.78,3.7,3.7,0,0,0-2.21-.53Zm3,11.38a4.23,4.23,0,0,0,1.4-.2,2.4,2.4,0,0,0,.9-.53,2,2,0,0,0,.49-.78,2.92,2.92,0,0,0,.15-.94,2.5,2.5,0,0,0-.17-.94,1.75,1.75,0,0,0-.52-.71,2.44,2.44,0,0,0-.91-.45,5.08,5.08,0,0,0-1.35-.16h-3v4.69Z"/><path class="cls-24" d="M45,196.14a3.93,3.93,0,0,0,1.54-.29,3.16,3.16,0,0,0,1.15-.81,3.58,3.58,0,0,0,.71-1.26,5.2,5.2,0,0,0,.25-1.66v-9.59h3v9.59a7.39,7.39,0,0,1-.46,2.64,5.86,5.86,0,0,1-3.4,3.47,8.06,8.06,0,0,1-5.55,0,5.86,5.86,0,0,1-3.4-3.47,7.38,7.38,0,0,1-.46-2.64v-9.59h3v9.58a5.2,5.2,0,0,0,.25,1.66,3.6,3.6,0,0,0,.72,1.27,3.19,3.19,0,0,0,1.15.81A3.92,3.92,0,0,0,45,196.14Z"/><path class="cls-24" d="M58.05,198.54h-3v-16h3Z"/><path class="cls-24" d="M71,196.08v2.46H61.65v-16h3v13.55Z"/><path class="cls-24" d="M87.21,190.53a8.65,8.65,0,0,1-.59,3.23A7.25,7.25,0,0,1,82.42,198a9,9,0,0,1-3.32.59H73v-16h6.1a9,9,0,0,1,3.32.59A7.5,7.5,0,0,1,85,184.77a7.36,7.36,0,0,1,1.65,2.53A8.66,8.66,0,0,1,87.21,190.53Zm-3.06,0a7.46,7.46,0,0,0-.35-2.36,4.9,4.9,0,0,0-1-1.77,4.39,4.39,0,0,0-1.59-1.11,5.46,5.46,0,0,0-2.11-.39H76v11.27H79.1a5.46,5.46,0,0,0,2.11-.39,4.39,4.39,0,0,0,1.59-1.11,4.89,4.89,0,0,0,1-1.77A7.45,7.45,0,0,0,84.16,190.53Z"/><path class="cls-24" d="M92.92,198.54h-3v-16h3Z"/><path class="cls-24" d="M110,182.53v16h-1.53a1.35,1.35,0,0,1-.59-.12,1.38,1.38,0,0,1-.46-.39l-8.36-10.67q.07.73.07,1.35v9.83H96.51v-16h1.56l.33,0a.78.78,0,0,1,.24.07.81.81,0,0,1,.2.14,2.3,2.3,0,0,1,.22.25l8.39,10.72q0-.39-.06-.76t0-.7v-9.73Z"/><path class="cls-24" d="M126.84,190.51V197a8.48,8.48,0,0,1-2.6,1.31,10.16,10.16,0,0,1-3,.42,9.84,9.84,0,0,1-3.55-.61,7.94,7.94,0,0,1-2.71-1.69,7.42,7.42,0,0,1-1.73-2.59,8.68,8.68,0,0,1-.61-3.29,9,9,0,0,1,.59-3.31,7.29,7.29,0,0,1,4.29-4.27,9.46,9.46,0,0,1,3.45-.6,10.11,10.11,0,0,1,1.82.16,9.18,9.18,0,0,1,1.57.43,6.84,6.84,0,0,1,1.32.66,7.94,7.94,0,0,1,1.1.85l-.85,1.35a.81.81,0,0,1-.52.39.93.93,0,0,1-.7-.16l-.73-.42a4.7,4.7,0,0,0-.81-.37,6.8,6.8,0,0,0-1-.25,7.42,7.42,0,0,0-1.29-.1,5.53,5.53,0,0,0-2.14.4,4.52,4.52,0,0,0-1.63,1.14,5.14,5.14,0,0,0-1,1.78,7,7,0,0,0-.37,2.33,7.15,7.15,0,0,0,.39,2.45,5.16,5.16,0,0,0,1.11,1.83A4.73,4.73,0,0,0,119,196a6.14,6.14,0,0,0,2.25.39,6.07,6.07,0,0,0,1.58-.19,7.76,7.76,0,0,0,1.36-.51v-2.9h-2a.6.6,0,0,1-.45-.16.53.53,0,0,1-.16-.39v-1.68Z"/><path class="cls-24" d="M148.85,198.54h-2.68a1.94,1.94,0,0,1-.68-.1,1.51,1.51,0,0,1-.55-.42l-1.11-1.14a8.21,8.21,0,0,1-2.36,1.35,8,8,0,0,1-2.82.49,5.37,5.37,0,0,1-1.81-.32,5,5,0,0,1-1.59-.91,4.6,4.6,0,0,1-1.12-1.45,4.19,4.19,0,0,1-.43-1.91,4.13,4.13,0,0,1,.24-1.42,4.79,4.79,0,0,1,.68-1.25,5.38,5.38,0,0,1,1-1,7.08,7.08,0,0,1,1.31-.79,6.15,6.15,0,0,1-.86-1.62,4.93,4.93,0,0,1-.27-1.58,4.14,4.14,0,0,1,.3-1.58,3.74,3.74,0,0,1,.88-1.3,4.22,4.22,0,0,1,1.42-.88,5.23,5.23,0,0,1,1.9-.33,4.79,4.79,0,0,1,1.74.3,4.2,4.2,0,0,1,1.32.8,3.79,3.79,0,0,1,.86,1.14,3.65,3.65,0,0,1,.37,1.33l-1.74.37a.59.59,0,0,1-.71-.42,2.79,2.79,0,0,0-.26-.55,2,2,0,0,0-.38-.45,1.73,1.73,0,0,0-.52-.31,1.87,1.87,0,0,0-.69-.12,2.06,2.06,0,0,0-.83.16,1.82,1.82,0,0,0-.61.43,1.9,1.9,0,0,0-.38.63,2.17,2.17,0,0,0-.13.76,3.08,3.08,0,0,0,.07.64,2.61,2.61,0,0,0,.22.62,4,4,0,0,0,.4.64,7.91,7.91,0,0,0,.61.7l4.25,4.42a7.71,7.71,0,0,0,.59-1.47,8.2,8.2,0,0,0,.29-1.57A.72.72,0,0,1,145,190a.52.52,0,0,1,.4-.16h1.71a9.67,9.67,0,0,1-.42,2.79,9,9,0,0,1-1.17,2.45Zm-10.66-7.48a3.79,3.79,0,0,0-1.29,1.3,3.14,3.14,0,0,0-.4,1.56,2.74,2.74,0,0,0,.21,1.1,2.45,2.45,0,0,0,.57.83,2.52,2.52,0,0,0,.84.52,2.86,2.86,0,0,0,1,.18,5,5,0,0,0,1.78-.3,5.08,5.08,0,0,0,1.46-.85Z"/><path class="cls-24" d="M169.18,182.53v16h-3v-7h-7.52v7h-3v-16h3v6.89h7.52v-6.89Z"/><path class="cls-24" d="M188.08,190.53a9,9,0,0,1-.58,3.26,7.65,7.65,0,0,1-1.64,2.6,7.45,7.45,0,0,1-2.56,1.71,9.26,9.26,0,0,1-6.63,0,7.51,7.51,0,0,1-2.56-1.71,7.68,7.68,0,0,1-1.66-2.6,9.36,9.36,0,0,1,0-6.52,7.69,7.69,0,0,1,1.66-2.6,7.53,7.53,0,0,1,2.56-1.71,8.62,8.62,0,0,1,3.31-.62,9,9,0,0,1,2.29.28,8,8,0,0,1,2,.8,7.26,7.26,0,0,1,1.61,1.25,7.61,7.61,0,0,1,1.21,1.64,8,8,0,0,1,.76,2A9.38,9.38,0,0,1,188.08,190.53Zm-3,0a7.36,7.36,0,0,0-.35-2.36,5.06,5.06,0,0,0-1-1.78,4.32,4.32,0,0,0-1.59-1.12,5.94,5.94,0,0,0-4.22,0,4.37,4.37,0,0,0-1.59,1.12,5,5,0,0,0-1,1.78,8.06,8.06,0,0,0,0,4.73,5,5,0,0,0,1,1.77,4.39,4.39,0,0,0,1.59,1.11,5.93,5.93,0,0,0,4.22,0,4.34,4.34,0,0,0,1.59-1.11,5,5,0,0,0,1-1.77A7.36,7.36,0,0,0,185,190.53Z"/><path class="cls-24" d="M197.15,196.14a3.93,3.93,0,0,0,1.54-.29,3.16,3.16,0,0,0,1.15-.81,3.58,3.58,0,0,0,.71-1.26,5.2,5.2,0,0,0,.25-1.66v-9.59h3v9.59a7.4,7.4,0,0,1-.46,2.64,5.87,5.87,0,0,1-3.41,3.47,8.06,8.06,0,0,1-5.55,0,5.86,5.86,0,0,1-3.4-3.47,7.38,7.38,0,0,1-.46-2.64v-9.59h3v9.58a5.2,5.2,0,0,0,.25,1.66,3.6,3.6,0,0,0,.72,1.27,3.19,3.19,0,0,0,1.15.81A3.93,3.93,0,0,0,197.15,196.14Z"/><path class="cls-24" d="M215.58,185.44a1,1,0,0,1-.28.34.63.63,0,0,1-.37.11,1,1,0,0,1-.5-.17l-.65-.38a5.36,5.36,0,0,0-.88-.38,3.7,3.7,0,0,0-1.19-.17,3.56,3.56,0,0,0-1.08.15,2.28,2.28,0,0,0-.78.42,1.66,1.66,0,0,0-.47.64,2.09,2.09,0,0,0-.16.81,1.41,1.41,0,0,0,.32.94,2.64,2.64,0,0,0,.84.64,7.89,7.89,0,0,0,1.18.48l1.36.45a12.67,12.67,0,0,1,1.36.55,4.7,4.7,0,0,1,1.18.8,3.63,3.63,0,0,1,.84,1.18,4.11,4.11,0,0,1,.32,1.69,5.52,5.52,0,0,1-.37,2,4.69,4.69,0,0,1-1.08,1.65,5.12,5.12,0,0,1-1.74,1.11,6.44,6.44,0,0,1-2.36.4,7.62,7.62,0,0,1-1.51-.15,7.93,7.93,0,0,1-1.42-.43,7.68,7.68,0,0,1-1.28-.66,6.18,6.18,0,0,1-1.06-.86l.87-1.43a.94.94,0,0,1,.29-.26.72.72,0,0,1,.38-.1,1.06,1.06,0,0,1,.6.23q.32.23.76.5a6,6,0,0,0,1,.5,4,4,0,0,0,1.42.23,2.92,2.92,0,0,0,2-.6,2.17,2.17,0,0,0,.7-1.73,1.61,1.61,0,0,0-.32-1,2.54,2.54,0,0,0-.84-.67,6.2,6.2,0,0,0-1.18-.46l-1.35-.41a11.67,11.67,0,0,1-1.35-.53,4.35,4.35,0,0,1-1.18-.81,3.66,3.66,0,0,1-.84-1.25,4.73,4.73,0,0,1-.32-1.84,4.43,4.43,0,0,1,1.36-3.18,5,5,0,0,1,1.64-1,6,6,0,0,1,2.24-.39,7.47,7.47,0,0,1,2.61.44,5.88,5.88,0,0,1,2,1.24Z"/><path class="cls-24" d="M222.28,198.54h-3v-16h3Z"/><path class="cls-24" d="M239.37,182.53v16h-1.53a1.35,1.35,0,0,1-.59-.12,1.38,1.38,0,0,1-.46-.39l-8.36-10.67q.07.73.07,1.35v9.83h-2.62v-16h1.56l.33,0a.78.78,0,0,1,.24.07.8.8,0,0,1,.21.14,2.26,2.26,0,0,1,.22.25l8.39,10.72q0-.39-.05-.76c0-.25,0-.48,0-.7v-9.73Z"/><path class="cls-24" d="M256.2,190.51V197a8.49,8.49,0,0,1-2.6,1.31,10.16,10.16,0,0,1-3,.42,9.84,9.84,0,0,1-3.55-.61,7.94,7.94,0,0,1-2.71-1.69,7.42,7.42,0,0,1-1.73-2.59,8.68,8.68,0,0,1-.61-3.29,9.06,9.06,0,0,1,.59-3.31,7.29,7.29,0,0,1,4.29-4.27,9.45,9.45,0,0,1,3.45-.6,10.1,10.1,0,0,1,1.82.16,9.14,9.14,0,0,1,1.57.43,6.83,6.83,0,0,1,1.32.66,8,8,0,0,1,1.1.85l-.85,1.35a.81.81,0,0,1-.52.39.93.93,0,0,1-.7-.16l-.73-.42a4.69,4.69,0,0,0-.81-.37,6.77,6.77,0,0,0-1-.25,7.42,7.42,0,0,0-1.29-.1,5.53,5.53,0,0,0-2.14.4,4.53,4.53,0,0,0-1.63,1.14,5.15,5.15,0,0,0-1,1.78,7,7,0,0,0-.37,2.33,7.12,7.12,0,0,0,.39,2.45,5.16,5.16,0,0,0,1.11,1.83,4.74,4.74,0,0,0,1.72,1.14,6.15,6.15,0,0,0,2.25.39,6.06,6.06,0,0,0,1.58-.19,7.78,7.78,0,0,0,1.36-.51v-2.9h-2a.61.61,0,0,1-.45-.16.54.54,0,0,1-.16-.39v-1.68Z"/></svg>