<svg id="Ebene_1" data-name="Ebene 1" xmlns="http://www.w3.org/2000/svg" viewBox="0 0 289.51 213.04"><defs><style>.cls-1{fill:#03787a;}.cls-2{fill:#ab8f75;}.cls-3{fill:#00b8c7;}.cls-4{fill:#fff;}.cls-5{fill:#7dc2c2;}.cls-6{fill:#8ac6c6;}</style></defs><title>numa_public</title><path class="cls-1" d="M165.82,49.52c5.11,3.23,28.21,20.76-3,57.83-.66.78-1.34,1.58-2.06,2.38l0,.15c.59-.4,1.21-.83,1.85-1.28,8.65-6.18,21.06-17.72,22.42-33.76,1.26-14.87-10-22-19.22-25.32"/><path class="cls-2" d="M158,125.23h1.61l3.05-16.62c-.64.45-1.26.88-1.85,1.28Z"/><path class="cls-3" d="M157.78,110.62l-.06,1.2c.82-.48,1.76-1.08,2.79-1.76l.25-.16,0-.15q1.07-1.2,2.06-2.38c31.18-37.07,8.08-54.6,3-57.83a54.14,54.14,0,0,0-8.18-2.23c2.93,2.2,22.81,19.36.14,63.32"/><path class="cls-2" d="M156.1,112.78l-.54,12.45h1.58l.59-13.41c-.61.38-1.16.69-1.63,1"/><path class="cls-4" d="M150.66,110.28l.07,1.53c.37.24.72.45,1,.63l.58.33c1.18.67,1.87,1,1.87,1s.69-.34,1.87-1c.47-.27,1-.58,1.63-1l.05-1.2c22.67-44,2.79-61.12-.14-63.32-2.1-.41-3.42-.53-3.42-.53s-1.08.09-2.84.42c0,0-24.7,16.16-.73,63.1"/><path class="cls-2" d="M151.78,112.44c-.32-.18-.68-.39-1-.63l.59,13.42h1.58l-.54-12.46-.58-.33"/><path class="cls-2" d="M157.14,125.23h-10a.79.79,0,0,0-.79.79V136a.79.79,0,0,0,.79.79h14.09a.79.79,0,0,0,.79-.79V126a.79.79,0,0,0-.79-.79h-4.13Z"/><path class="cls-2" d="M147.68,109.88c-.59-.4-1.21-.83-1.85-1.28l3.05,16.63h1.61Z"/><path class="cls-3" d="M145.59,107.21q1,1.17,2,2.38l.52.61h0c.94.61,1.8,1.15,2.56,1.6l-.07-1.53c-24-46.94.73-63.1.73-63.1a55,55,0,0,0-7.59,1.93h0c-.65.34-32.22,17.37,1.8,58.08"/><path class="cls-1" d="M148.16,110.2l-.52-.61q-1.07-1.21-2-2.38c-34-40.71-2.45-57.74-1.8-58.08-9.46,3.14-21.7,10.24-20.38,25.72,1.37,16,13.77,27.57,22.42,33.75l1.85,1.28.48.32"/><path class="cls-5" d="M92.78,126.78a8.34,8.34,0,1,1-8.34-8.34,8.34,8.34,0,0,1,8.34,8.34"/><path class="cls-5" d="M129.43,142.66a4.93,4.93,0,1,1-4.93-4.93,4.93,4.93,0,0,1,4.93,4.93"/><path class="cls-5" d="M182.28,121.06a3.53,3.53,0,1,1-3.53-3.53,3.53,3.53,0,0,1,3.53,3.53"/><path class="cls-3" d="M114,75a26.15,26.15,0,0,1,8.93-19.67L121.53,54a28.14,28.14,0,0,0,1,43.06L124,95.59A26.17,26.17,0,0,1,114,75"/><path class="cls-3" d="M194,75A26.19,26.19,0,0,1,184,95.6L185.46,97a28.15,28.15,0,0,0,1-43.07l-1.41,1.41A26.16,26.16,0,0,1,194,75"/><path class="cls-3" d="M105.87,75a34.26,34.26,0,0,1,11.32-25.42l-1.41-1.41a36.24,36.24,0,0,0,1,54.59l1.41-1.41A34.31,34.31,0,0,1,105.87,75"/><path class="cls-3" d="M202.15,75a34.31,34.31,0,0,1-12.33,26.34l1.41,1.41a36.25,36.25,0,0,0,1-54.59l-1.41,1.41A34.26,34.26,0,0,1,202.15,75"/><path class="cls-3" d="M98.53,75A41.56,41.56,0,0,1,112,44.44L110.59,43a43.52,43.52,0,0,0,1,65l1.41-1.41A41.6,41.6,0,0,1,98.53,75"/><path class="cls-3" d="M209.48,75A41.6,41.6,0,0,1,195,106.57l1.41,1.41a43.52,43.52,0,0,0,1-65L196,44.43A41.56,41.56,0,0,1,209.48,75"/><path class="cls-6" d="M72.91,201.2a5.39,5.39,0,0,0,.31,1.51,3.09,3.09,0,0,0,.64,1.05,2.53,2.53,0,0,0,.95.62,3.43,3.43,0,0,0,1.21.21,3.76,3.76,0,0,0,1.15-.16,5.3,5.3,0,0,0,.84-.34l.63-.34a1.05,1.05,0,0,1,.53-.16.57.57,0,0,1,.51.25l.79,1a4.58,4.58,0,0,1-1,.89,5.73,5.73,0,0,1-1.18.58,6.42,6.42,0,0,1-1.25.3,8.88,8.88,0,0,1-1.23.09,6.07,6.07,0,0,1-2.2-.39,4.93,4.93,0,0,1-1.77-1.16,5.44,5.44,0,0,1-1.19-1.9,7.39,7.39,0,0,1-.43-2.63,6.29,6.29,0,0,1,.38-2.19,5.26,5.26,0,0,1,1.08-1.78,5.07,5.07,0,0,1,1.72-1.2,5.64,5.64,0,0,1,2.29-.44,5.55,5.55,0,0,1,2,.34,4.31,4.31,0,0,1,1.56,1,4.64,4.64,0,0,1,1,1.62,6,6,0,0,1,.37,2.19,1.77,1.77,0,0,1-.13.84.55.55,0,0,1-.51.22Zm5.21-1.65a3.29,3.29,0,0,0-.15-1,2.39,2.39,0,0,0-.45-.83,2.09,2.09,0,0,0-.76-.56A2.6,2.6,0,0,0,75.7,197a2.54,2.54,0,0,0-1.87.67,3.31,3.31,0,0,0-.87,1.92Z"/><path class="cls-6" d="M96.4,198.51V205a8.49,8.49,0,0,1-2.6,1.31,10.16,10.16,0,0,1-3,.42,9.84,9.84,0,0,1-3.55-.61,7.94,7.94,0,0,1-2.71-1.69,7.42,7.42,0,0,1-1.73-2.59,8.68,8.68,0,0,1-.61-3.29,9.06,9.06,0,0,1,.59-3.31,7.29,7.29,0,0,1,4.29-4.27,9.45,9.45,0,0,1,3.45-.6,10.1,10.1,0,0,1,1.82.16,9.14,9.14,0,0,1,1.57.43,6.83,6.83,0,0,1,1.32.66,8,8,0,0,1,1.1.85l-.85,1.35a.81.81,0,0,1-.52.39.93.93,0,0,1-.7-.16l-.73-.42a4.69,4.69,0,0,0-.81-.37,6.77,6.77,0,0,0-1-.25,7.42,7.42,0,0,0-1.29-.1,5.53,5.53,0,0,0-2.14.4,4.53,4.53,0,0,0-1.63,1.14,5.15,5.15,0,0,0-1,1.78,7,7,0,0,0-.37,2.33,7.12,7.12,0,0,0,.39,2.45,5.16,5.16,0,0,0,1.11,1.83A4.74,4.74,0,0,0,88.51,204a6.15,6.15,0,0,0,2.25.39,6.06,6.06,0,0,0,1.58-.19,7.78,7.78,0,0,0,1.36-.51v-2.9h-2a.61.61,0,0,1-.45-.16.54.54,0,0,1-.16-.39v-1.68Z"/><path class="cls-6" d="M114.63,198.53a8.94,8.94,0,0,1-.58,3.26,7.65,7.65,0,0,1-1.64,2.6,7.44,7.44,0,0,1-2.56,1.71,9.26,9.26,0,0,1-6.63,0,7.51,7.51,0,0,1-2.56-1.71,7.69,7.69,0,0,1-1.66-2.6,9.35,9.35,0,0,1,0-6.52,7.69,7.69,0,0,1,1.66-2.6,7.53,7.53,0,0,1,2.56-1.71,8.62,8.62,0,0,1,3.31-.62,9,9,0,0,1,2.29.28,8,8,0,0,1,2,.8,7.28,7.28,0,0,1,1.61,1.25,7.62,7.62,0,0,1,1.21,1.64,8.06,8.06,0,0,1,.76,2A9.4,9.4,0,0,1,114.63,198.53Zm-3,0a7.35,7.35,0,0,0-.35-2.36,5.06,5.06,0,0,0-1-1.78,4.33,4.33,0,0,0-1.59-1.12,5.95,5.95,0,0,0-4.22,0,4.37,4.37,0,0,0-1.59,1.12,5,5,0,0,0-1,1.78,8.06,8.06,0,0,0,0,4.73,5,5,0,0,0,1,1.77,4.39,4.39,0,0,0,1.59,1.11,5.93,5.93,0,0,0,4.22,0,4.35,4.35,0,0,0,1.59-1.11,5,5,0,0,0,1-1.77A7.34,7.34,0,0,0,111.59,198.53Z"/><path class="cls-6" d="M130.4,190.53l-6.47,16h-2.69l-6.47-16h2.39a1,1,0,0,1,.63.19,1.16,1.16,0,0,1,.37.49l3.78,9.77q.19.48.36,1t.33,1.19c.09-.41.18-.81.29-1.19a9.83,9.83,0,0,1,.34-1L127,191.2a1.06,1.06,0,0,1,.35-.46,1,1,0,0,1,.64-.21Z"/><path class="cls-6" d="M135.09,192.9v4.44h5.6v2.29h-5.6v4.53h7.11v2.38H132.1v-16h10.1v2.37Z"/><path class="cls-6" d="M157.31,206.54h-2.69a1.18,1.18,0,0,1-1.11-.6l-3.37-5.13a1.18,1.18,0,0,0-.42-.41,1.46,1.46,0,0,0-.67-.12h-1.27v6.26h-3v-16h4.88a10.17,10.17,0,0,1,2.8.34,5.35,5.35,0,0,1,1.92.95,3.7,3.7,0,0,1,1.1,1.46,5.07,5.07,0,0,1,.12,3.39,4.45,4.45,0,0,1-.69,1.31,4.62,4.62,0,0,1-1.11,1,5.55,5.55,0,0,1-1.5.7,3,3,0,0,1,.53.39,2.79,2.79,0,0,1,.44.54Zm-7.66-8.39a4.63,4.63,0,0,0,1.47-.21,2.84,2.84,0,0,0,1-.58,2.34,2.34,0,0,0,.6-.88,3,3,0,0,0,.2-1.12,2.27,2.27,0,0,0-.8-1.87,3.84,3.84,0,0,0-2.45-.65h-1.9v5.31Z"/><path class="cls-6" d="M172.57,190.53v16H171a1.35,1.35,0,0,1-.59-.12A1.38,1.38,0,0,1,170,206l-8.36-10.67q.07.73.07,1.35v9.83h-2.62v-16h1.56l.33,0a.78.78,0,0,1,.24.07.8.8,0,0,1,.21.14,2.26,2.26,0,0,1,.22.25L170,201.72q0-.39-.05-.76c0-.25,0-.48,0-.7v-9.73Z"/><path class="cls-6" d="M189.9,206.54h-2.3a1,1,0,0,1-.63-.19,1.21,1.21,0,0,1-.37-.48l-1.2-3.27h-6.63l-1.2,3.27a1.07,1.07,0,0,1-.34.47,1,1,0,0,1-.63.21h-2.33l6.3-16h3Zm-5.26-6-1.95-5.33q-.14-.35-.3-.84t-.31-1.05q-.14.57-.3,1.06c-.1.33-.2.61-.3.86l-1.94,5.3Z"/><path class="cls-6" d="M205.1,190.53v16h-1.53a1.35,1.35,0,0,1-.59-.12,1.38,1.38,0,0,1-.46-.39l-8.36-10.67q.07.73.07,1.35v9.83H191.6v-16h1.56l.33,0a.78.78,0,0,1,.24.07.8.8,0,0,1,.21.14,2.26,2.26,0,0,1,.22.25l8.39,10.72q0-.39-.05-.76c0-.25,0-.48,0-.7v-9.73Z"/><path class="cls-6" d="M219.75,202.76a.59.59,0,0,1,.43.19l1.17,1.27a6.45,6.45,0,0,1-2.4,1.85,8.27,8.27,0,0,1-3.42.64,8.06,8.06,0,0,1-3.21-.61,7.07,7.07,0,0,1-2.43-1.69,7.42,7.42,0,0,1-1.54-2.59,9.71,9.71,0,0,1-.54-3.29,9.13,9.13,0,0,1,.58-3.3,7.57,7.57,0,0,1,1.62-2.59,7.35,7.35,0,0,1,2.5-1.69,8.28,8.28,0,0,1,3.21-.6,7.89,7.89,0,0,1,3.11.58,7.4,7.4,0,0,1,2.31,1.51l-1,1.38a.9.9,0,0,1-.23.23.64.64,0,0,1-.38.1.73.73,0,0,1-.34-.09l-.39-.23-.49-.3a4,4,0,0,0-.64-.3,5.28,5.28,0,0,0-.85-.23,5.87,5.87,0,0,0-1.11-.09,4.94,4.94,0,0,0-2,.38,4.27,4.27,0,0,0-1.53,1.11,5.09,5.09,0,0,0-1,1.77,7.42,7.42,0,0,0-.35,2.39,7,7,0,0,0,.38,2.4,5.28,5.28,0,0,0,1,1.77,4.41,4.41,0,0,0,1.54,1.1,4.76,4.76,0,0,0,1.9.38,8.18,8.18,0,0,0,1.1-.07,4.69,4.69,0,0,0,.91-.21,4,4,0,0,0,.79-.37,5,5,0,0,0,.74-.56,1.06,1.06,0,0,1,.23-.16A.57.57,0,0,1,219.75,202.76Z"/><path class="cls-6" d="M226.33,192.9v4.44h5.6v2.29h-5.6v4.53h7.11v2.38h-10.1v-16h10.1v2.37Z"/><path class="cls-6" d="M66.7,170a9.14,9.14,0,0,1,2.78.38,5.36,5.36,0,0,1,1.94,1.05A4.17,4.17,0,0,1,72.55,173a5.57,5.57,0,0,1,.37,2.06,5.68,5.68,0,0,1-.39,2.13,4.43,4.43,0,0,1-1.16,1.67,5.41,5.41,0,0,1-1.94,1.08,8.67,8.67,0,0,1-2.73.39H64.47V186h-3V170Zm0,8a4.49,4.49,0,0,0,1.43-.21,2.71,2.71,0,0,0,1-.59,2.38,2.38,0,0,0,.6-.93,3.56,3.56,0,0,0,.2-1.22,3.23,3.23,0,0,0-.2-1.16,2.3,2.3,0,0,0-.6-.89,2.66,2.66,0,0,0-1-.56,4.78,4.78,0,0,0-1.44-.19H64.47V178Z"/><path class="cls-6" d="M81.51,183.56a3.93,3.93,0,0,0,1.54-.29,3.16,3.16,0,0,0,1.15-.81,3.58,3.58,0,0,0,.71-1.26,5.2,5.2,0,0,0,.25-1.66V170h3v9.59a7.4,7.4,0,0,1-.46,2.64,5.87,5.87,0,0,1-3.41,3.47,8.06,8.06,0,0,1-5.55,0,5.86,5.86,0,0,1-3.4-3.47,7.38,7.38,0,0,1-.46-2.64V170h3v9.58a5.2,5.2,0,0,0,.25,1.66,3.59,3.59,0,0,0,.72,1.27,3.19,3.19,0,0,0,1.15.81A3.93,3.93,0,0,0,81.51,183.56Z"/><path class="cls-6" d="M97.09,170a10.54,10.54,0,0,1,2.69.3,5.12,5.12,0,0,1,1.83.85,3.29,3.29,0,0,1,1,1.34,4.5,4.5,0,0,1,.33,1.77,3.47,3.47,0,0,1-.17,1.08,3.12,3.12,0,0,1-.51,1,3.86,3.86,0,0,1-.89.81,5.37,5.37,0,0,1-1.28.62q3.3.74,3.3,3.56a4.55,4.55,0,0,1-.39,1.88,4.17,4.17,0,0,1-1.13,1.49,5.39,5.39,0,0,1-1.83,1,8,8,0,0,1-2.48.35h-6V170Zm-2.54,2.3v4.63h2.37a4,4,0,0,0,2.31-.55,2,2,0,0,0,.78-1.76,2.09,2.09,0,0,0-.71-1.78,3.7,3.7,0,0,0-2.21-.53Zm3,11.38a4.23,4.23,0,0,0,1.4-.2,2.41,2.41,0,0,0,.9-.53,2,2,0,0,0,.49-.78,2.9,2.9,0,0,0,.15-.94,2.49,2.49,0,0,0-.17-.94,1.76,1.76,0,0,0-.52-.71,2.44,2.44,0,0,0-.91-.45,5.08,5.08,0,0,0-1.34-.16h-3v4.69Z"/><path class="cls-6" d="M115.63,183.51V186h-9.38V170h3v13.55Z"/><path class="cls-6" d="M120.59,186h-3V170h3Z"/><path class="cls-6" d="M135.22,182.19a.59.59,0,0,1,.43.19l1.17,1.27a6.45,6.45,0,0,1-2.4,1.85,8.27,8.27,0,0,1-3.42.64,8.06,8.06,0,0,1-3.21-.61,7.07,7.07,0,0,1-2.43-1.69,7.42,7.42,0,0,1-1.54-2.59,9.71,9.71,0,0,1-.54-3.29,9.13,9.13,0,0,1,.58-3.3,7.57,7.57,0,0,1,1.62-2.59,7.35,7.35,0,0,1,2.5-1.69,8.28,8.28,0,0,1,3.21-.6,7.89,7.89,0,0,1,3.11.58,7.4,7.4,0,0,1,2.31,1.51l-1,1.38a.9.9,0,0,1-.23.23.64.64,0,0,1-.38.1.73.73,0,0,1-.34-.09l-.39-.23-.49-.3a4,4,0,0,0-.64-.3,5.28,5.28,0,0,0-.85-.23,5.87,5.87,0,0,0-1.11-.09,4.94,4.94,0,0,0-2,.38,4.27,4.27,0,0,0-1.53,1.11,5.09,5.09,0,0,0-1,1.77,7.42,7.42,0,0,0-.35,2.39,7,7,0,0,0,.38,2.4,5.28,5.28,0,0,0,1,1.77,4.41,4.41,0,0,0,1.54,1.1,4.76,4.76,0,0,0,1.9.38,8.18,8.18,0,0,0,1.1-.07,4.69,4.69,0,0,0,.91-.21A4,4,0,0,0,134,183a5,5,0,0,0,.74-.56,1.06,1.06,0,0,1,.23-.16A.57.57,0,0,1,135.22,182.19Z"/><path class="cls-6" d="M152.36,172.87a1,1,0,0,1-.28.34.63.63,0,0,1-.37.11,1,1,0,0,1-.5-.17l-.65-.38a5.36,5.36,0,0,0-.88-.38,3.7,3.7,0,0,0-1.19-.17,3.56,3.56,0,0,0-1.08.15,2.28,2.28,0,0,0-.78.42,1.66,1.66,0,0,0-.47.64,2.09,2.09,0,0,0-.16.81,1.41,1.41,0,0,0,.32.94,2.64,2.64,0,0,0,.84.64,7.89,7.89,0,0,0,1.18.48l1.36.45a12.67,12.67,0,0,1,1.36.55,4.7,4.7,0,0,1,1.18.8,3.63,3.63,0,0,1,.84,1.18,4.11,4.11,0,0,1,.32,1.69,5.52,5.52,0,0,1-.37,2,4.69,4.69,0,0,1-1.08,1.65,5.12,5.12,0,0,1-1.74,1.11,6.44,6.44,0,0,1-2.36.4,7.62,7.62,0,0,1-1.51-.15,7.93,7.93,0,0,1-1.42-.43,7.68,7.68,0,0,1-1.28-.66,6.18,6.18,0,0,1-1.06-.86l.87-1.43a.94.94,0,0,1,.29-.26.72.72,0,0,1,.38-.1,1.06,1.06,0,0,1,.6.23q.32.23.76.5a6,6,0,0,0,1,.5,4,4,0,0,0,1.42.23,2.92,2.92,0,0,0,2-.6,2.17,2.17,0,0,0,.7-1.73,1.61,1.61,0,0,0-.32-1,2.54,2.54,0,0,0-.84-.67,6.2,6.2,0,0,0-1.18-.46l-1.35-.41a11.67,11.67,0,0,1-1.35-.53,4.35,4.35,0,0,1-1.18-.81,3.66,3.66,0,0,1-.84-1.25,4.73,4.73,0,0,1-.32-1.84,4.43,4.43,0,0,1,1.36-3.18,5,5,0,0,1,1.64-1,6,6,0,0,1,2.24-.39,7.47,7.47,0,0,1,2.61.44,5.88,5.88,0,0,1,2,1.24Z"/><path class="cls-6" d="M169.59,186h-2.3a1,1,0,0,1-.63-.19,1.21,1.21,0,0,1-.37-.48L165.1,182h-6.63l-1.2,3.27a1.07,1.07,0,0,1-.34.47,1,1,0,0,1-.63.21H154l6.3-16h3Zm-5.26-6-1.95-5.33q-.14-.35-.3-.84t-.31-1.05q-.14.57-.3,1.06c-.1.33-.2.61-.3.86l-1.94,5.3Z"/><path class="cls-6" d="M174.29,172.32v4.74h6v2.38h-6V186h-3V170h10.1v2.37Z"/><path class="cls-6" d="M186.51,172.32v4.44h5.6v2.29h-5.6v4.53h7.11V186h-10.1V170h10.1v2.37Z"/><path class="cls-6" d="M207.7,172.4h-4.83V186h-3V172.4h-4.83V170H207.7Z"/><path class="cls-6" d="M217.43,179.76V186h-3v-6.2L208.63,170h2.62a.94.94,0,0,1,.61.19,1.59,1.59,0,0,1,.38.48l2.92,5.35q.25.48.45.9t.35.84q.14-.42.33-.84t.43-.9l2.91-5.35a1.47,1.47,0,0,1,.37-.45.92.92,0,0,1,.62-.21h2.63Z"/><path class="cls-6" d="M244,186h-2.68a1.94,1.94,0,0,1-.68-.1,1.51,1.51,0,0,1-.55-.42L239,184.3a8.23,8.23,0,0,1-2.36,1.35,8,8,0,0,1-2.82.49,5.37,5.37,0,0,1-1.81-.32,5,5,0,0,1-1.59-.91,4.6,4.6,0,0,1-1.12-1.45,4.19,4.19,0,0,1-.43-1.91,4.14,4.14,0,0,1,.24-1.42,4.78,4.78,0,0,1,.68-1.25,5.35,5.35,0,0,1,1-1,7.08,7.08,0,0,1,1.31-.79,6.14,6.14,0,0,1-.86-1.62,4.92,4.92,0,0,1-.27-1.58,4.14,4.14,0,0,1,.3-1.58,3.75,3.75,0,0,1,.88-1.3,4.21,4.21,0,0,1,1.42-.88,5.23,5.23,0,0,1,1.9-.33,4.79,4.79,0,0,1,1.74.3,4.19,4.19,0,0,1,1.32.8,3.78,3.78,0,0,1,.86,1.14,3.64,3.64,0,0,1,.37,1.33l-1.74.37a.59.59,0,0,1-.71-.42,2.81,2.81,0,0,0-.26-.55,2,2,0,0,0-.38-.45,1.75,1.75,0,0,0-.52-.31,1.87,1.87,0,0,0-.69-.12,2,2,0,0,0-.83.16,1.81,1.81,0,0,0-.62.43,1.9,1.9,0,0,0-.38.63,2.18,2.18,0,0,0-.13.76,3.08,3.08,0,0,0,.07.64,2.63,2.63,0,0,0,.22.62,4.08,4.08,0,0,0,.4.64,8,8,0,0,0,.61.7l4.25,4.42a7.81,7.81,0,0,0,.59-1.47,8.16,8.16,0,0,0,.29-1.57.72.72,0,0,1,.18-.41.52.52,0,0,1,.4-.16h1.71a9.67,9.67,0,0,1-.42,2.79,9,9,0,0,1-1.17,2.45Zm-10.66-7.48a3.79,3.79,0,0,0-1.29,1.3,3.14,3.14,0,0,0-.4,1.56,2.73,2.73,0,0,0,.21,1.1,2.45,2.45,0,0,0,.57.83,2.52,2.52,0,0,0,.84.52,2.86,2.86,0,0,0,1,.18,5,5,0,0,0,1.78-.3,5.08,5.08,0,0,0,1.46-.85Z"/></svg>