<svg id="numa" xmlns="http://www.w3.org/2000/svg" viewBox="0 0 332 87"><defs><style>.cls-1{fill:#00b2c6;}</style></defs><title>numanuma</title><g id="n"><rect class="cls-1" x="6.61" y="5.38" width="25.59" height="76.78"/><polygon class="cls-1" points="64.19 5.38 38.6 18.18 38.6 82.16 64.19 82.16 64.19 5.38"/></g><g id="u"><polygon class="cls-1" points="83.39 5.38 83.39 69.36 108.98 82.16 108.98 5.38 83.39 5.38"/><polygon class="cls-1" points="115.38 5.38 115.38 82.16 140.97 69.36 140.97 5.38 115.38 5.38"/></g><g id="a"><rect class="cls-1" x="300.92" y="5.38" width="25.59" height="76.78"/><polygon class="cls-1" points="294.52 5.38 268.93 18.18 268.93 69.36 294.52 82.16 294.52 5.38"/></g><g id="m"><polygon class="cls-1" points="217.74 5.38 192.15 18.18 192.15 82.16 217.74 82.16 217.74 5.38"/><polygon class="cls-1" points="249.73 5.38 224.14 18.18 224.14 82.16 249.73 82.16 249.73 5.38"/><rect class="cls-1" x="160.16" y="5.38" width="25.59" height="76.78"/></g></svg>